<svg width="250" height="268" viewBox="0 0 250 268" fill="none" xmlns="http://www.w3.org/2000/svg">
<g clip-path="url(#clip0_173_179)">
<path d="M232.461 216.656C230.576 230.584 221.149 242.636 207.952 247.992C201.487 250.667 194.485 251.473 187.481 250.667C180.749 249.865 174.014 247.722 167.012 243.709C157.315 238.347 147.619 230.049 136.307 217.729C154.085 196.036 164.855 176.218 168.897 158.545C170.783 150.242 171.051 142.743 170.245 135.779C169.169 129.085 166.744 122.923 162.971 117.568C154.622 105.517 140.618 98.5531 124.996 98.5531C109.374 98.5531 95.3688 105.785 87.0192 117.568C83.2467 122.924 80.8258 129.085 79.7467 135.779C78.6706 142.743 78.9391 150.509 81.0944 158.546C85.1335 176.217 96.1754 196.304 113.684 217.993C102.641 230.316 92.6754 238.617 82.9782 243.974C75.9762 247.992 69.2419 250.135 62.5094 250.935C55.569 251.706 48.5441 250.788 42.0397 248.26C28.8415 242.904 19.4167 230.848 17.5299 216.923C16.7233 210.229 17.2614 203.535 19.9547 196.036C20.7614 193.356 22.11 190.683 23.4547 187.467C25.3415 183.184 27.4967 178.628 29.6491 174.074L29.9206 173.542C48.5026 133.636 68.4352 92.93 89.1745 53.2961L89.9821 51.6861C92.1374 47.6729 94.2897 43.3898 96.4469 39.3708C98.6002 35.0847 101.024 31.0666 103.986 27.5826C109.642 21.1545 117.184 17.6734 125.534 17.6734C133.883 17.6734 141.424 21.1545 147.081 27.5836C150.044 31.0666 152.467 35.0847 154.623 39.3717C156.778 43.3898 158.93 47.6729 161.086 51.6861L161.896 53.2961C182.364 93.197 202.297 133.903 220.881 173.809V174.074C223.036 178.36 224.92 183.184 227.075 187.467C228.423 190.683 229.768 193.355 230.575 196.036C232.73 202.998 233.538 209.696 232.462 216.656H232.461ZM124.996 204.067C110.453 185.859 101.024 168.718 97.7926 154.26C96.4479 148.099 96.1754 142.743 96.986 137.922C97.5231 133.636 99.1413 129.885 101.293 126.669C106.411 119.444 115.029 114.884 124.996 114.884C134.962 114.884 143.849 119.173 148.697 126.669C150.85 129.885 152.467 133.636 153.006 137.922C153.813 142.743 153.544 148.366 152.198 154.26C148.966 168.453 139.539 185.592 124.996 204.067ZM246.466 190.143C245.121 186.929 243.773 183.449 242.427 180.503C240.272 175.685 238.117 171.129 236.231 166.843L235.962 166.578C217.38 126.404 197.447 85.6978 176.438 45.5328L175.631 43.9209C173.476 39.9038 171.321 35.6178 169.169 31.3337C166.473 26.5106 163.779 21.4274 159.471 16.6034C150.849 5.89115 138.463 0 125.263 0C111.797 0 99.6774 5.89114 90.7877 16.0703C86.7497 20.8894 83.7868 25.9776 81.0934 30.8015C78.9381 35.0847 76.7829 39.3708 74.6286 43.3898L73.821 44.992C53.0836 85.1628 32.8825 125.872 14.2975 166.042L14.029 166.578C12.1422 170.861 9.98696 175.412 7.83169 180.236C6.39082 183.41 5.04421 186.625 3.79361 189.878C0.290676 199.784 -0.785496 209.159 0.560207 218.799C3.52505 238.885 16.9918 255.759 35.5758 263.256C42.5768 266.204 49.8493 267.542 57.3922 267.542C59.5465 267.542 62.2399 267.274 64.3952 267.004C73.2819 265.931 82.4391 262.991 91.3258 257.899C102.371 251.74 112.876 242.904 124.725 230.049C136.575 242.904 147.349 251.741 158.123 257.899C167.012 262.991 176.169 265.931 185.056 267.004C187.212 267.274 189.905 267.542 192.059 267.542C199.601 267.542 207.141 266.204 213.876 263.256C232.729 255.759 245.926 238.618 248.889 218.799C251.045 209.424 249.965 200.055 246.465 190.142L246.466 190.143Z" fill="#E0565B"/>
</g>
<defs>
<clipPath id="clip0_173_179">
<rect width="250" height="268" fill="white"/>
</clipPath>
</defs>
</svg>
