<svg width="228" height="268" viewBox="0 0 228 268" fill="none" xmlns="http://www.w3.org/2000/svg">
<g clip-path="url(#clip0_173_169)">
<path d="M69.8152 0.764032C68.5101 0.772435 67.2276 1.10567 66.0835 1.73364C62.3268 3.81531 60.949 8.6402 63.0304 12.3931L71.5118 27.7038C51.0773 40.3426 37.5372 61.9321 37.5372 86.573V91.1513C33.6122 86.6371 27.8436 83.7871 21.3982 83.7871C9.58847 83.7871 0 93.3727 0 105.178V171.073C0 182.878 9.58936 192.464 21.3982 192.464C27.8436 192.464 33.6122 189.613 37.5363 185.099V194.33C37.5363 206.774 47.7224 216.956 60.1706 216.956H65.9134V246.27C65.9134 258.076 75.5027 267.662 87.3115 267.662C99.1203 267.662 108.709 258.075 108.709 246.27V216.956H118.645V246.27C118.645 258.076 128.234 267.662 140.043 267.662C151.852 267.662 161.44 258.075 161.44 246.27V216.956H167.184C179.631 216.956 189.817 206.774 189.817 194.33V185.099C193.741 189.613 199.511 192.464 205.956 192.464C217.765 192.464 227.353 182.878 227.353 171.073V105.178C227.353 93.3727 217.765 83.7871 205.956 83.7871C199.511 83.7871 193.741 86.6371 189.817 91.1513V87.3476V87.1295C189.819 86.898 189.817 86.7128 189.817 86.573C189.817 61.9366 176.246 40.3684 155.818 27.7288L164.324 12.3931C166.404 8.6402 165.027 3.81531 161.271 1.73364C160.127 1.10567 158.844 0.772435 157.539 0.764032C154.765 0.737321 152.042 2.1993 150.608 4.78581L141.714 20.848C133.018 17.64 123.556 15.8815 113.678 15.8815C103.808 15.8815 94.3279 17.6213 85.6389 20.8231L76.746 4.78581C75.3113 2.1993 72.5895 0.739101 69.8152 0.764032Z" fill="white"/>
<path d="M21.3987 89.3589C12.5868 89.3589 5.57495 96.3687 5.57495 105.178V171.073C5.57495 179.882 12.5868 186.892 21.3987 186.892C30.2105 186.892 37.2233 179.882 37.2233 171.073V105.178C37.2233 96.3687 30.2105 89.3589 21.3987 89.3589V89.3589ZM205.958 89.3589C197.145 89.3589 190.133 96.3687 190.133 105.178V171.073C190.133 179.882 197.145 186.892 205.958 186.892C214.769 186.892 221.781 179.882 221.781 171.073V105.178C221.781 96.3687 214.769 89.3589 205.958 89.3589V89.3589Z" fill="#A4C639"/>
<path d="M87.3127 164.556C78.5008 164.556 71.488 171.566 71.488 180.376V246.27C71.488 255.079 78.5008 262.089 87.3127 262.089C96.1245 262.089 103.136 255.079 103.136 246.27V180.376C103.136 171.566 96.1245 164.556 87.3127 164.556ZM140.044 164.556C131.231 164.556 124.219 171.566 124.219 180.376V246.27C124.219 255.079 131.231 262.089 140.044 262.089C148.856 262.089 155.868 255.079 155.868 246.27V180.376C155.868 171.566 148.856 164.556 140.044 164.556Z" fill="#A4C639"/>
<path d="M69.863 6.33674C69.4887 6.34125 69.1218 6.44115 68.7969 6.627C67.6685 7.25203 67.298 8.5484 67.9241 9.67917L79.072 29.8112C57.6258 40.9675 43.1389 62.168 43.1104 86.4999H184.243C184.214 62.168 169.728 40.9666 148.282 29.8112L159.429 9.68006C160.056 8.54929 159.684 7.25203 158.556 6.627C158.231 6.44104 157.864 6.34113 157.49 6.33674C156.688 6.32783 155.93 6.7285 155.503 7.49955L144.21 27.8489C134.972 23.7532 124.611 21.4534 113.676 21.4534C102.742 21.4534 92.3815 23.7523 83.1431 27.8489L71.85 7.49955C71.6574 7.14235 71.3702 6.84495 71.0199 6.63987C70.6697 6.4348 70.2697 6.32993 69.8639 6.33674H69.863ZM43.1104 92.0718V194.33C43.1056 196.571 43.5436 198.791 44.3992 200.862C45.2549 202.934 46.5113 204.816 48.0964 206.4C49.6816 207.985 51.5642 209.241 53.6361 210.096C55.7081 210.951 57.9287 211.389 60.1703 211.384H167.183C169.425 211.389 171.646 210.951 173.718 210.096C175.79 209.241 177.672 207.985 179.258 206.4C180.843 204.815 182.099 202.933 182.955 200.862C183.81 198.79 184.248 196.57 184.243 194.329V92.0727H43.1104V92.0718Z" fill="#A4C639"/>
<path d="M81.1073 48.9014C77.8859 48.9014 75.2185 51.5671 75.2185 54.7876C75.2185 58.0089 77.8859 60.6747 81.1073 60.6747C84.3296 60.6747 86.9961 58.0089 86.9961 54.7876C86.9961 51.5671 84.3296 48.9014 81.1073 48.9014ZM146.246 48.9014C143.024 48.9014 140.357 51.5671 140.357 54.7876C140.357 58.0089 143.024 60.6747 146.246 60.6747C149.467 60.6747 152.135 58.0089 152.135 54.7876C152.135 51.5671 149.467 48.9014 146.246 48.9014Z" fill="white"/>
</g>
<defs>
<clipPath id="clip0_173_169">
<rect width="228" height="268" fill="white"/>
</clipPath>
</defs>
</svg>
