<svg width="266" height="268" viewBox="0 0 266 268" fill="none" xmlns="http://www.w3.org/2000/svg">
<g clip-path="url(#clip0_173_159)">
<path opacity="0.5" d="M132.681 38.1481V114.285L199.022 76.1379V0L132.681 38.1481V38.1481Z" fill="#13A049"/>
<path opacity="0.5" d="M132.681 38.1481L66.3411 0V76.2962L132.681 114.444V38.1481Z" fill="#A2CC39"/>
<path opacity="0.9" d="M199.022 0L132.681 38.1481L66.341 0L0 38.1481L132.681 114.444L265.283 38.1481L199.022 0Z" fill="url(#paint0_linear_173_159)"/>
<path d="M132.681 114.444L0 38.1479V114.444L66.341 152.592V228.81L132.681 266.958L199.022 228.81V152.592L265.283 114.444V38.1479L132.681 114.444Z" fill="url(#paint1_linear_173_159)"/>
<path d="M132.681 114.444V266.958L199.022 228.81V152.592L265.283 114.444V38.1479L132.681 114.444Z" fill="url(#paint2_linear_173_159)"/>
<path opacity="0.05" d="M132.681 190.662V266.958L199.022 228.81L132.681 190.662V190.662Z" fill="#231F20"/>
<path opacity="0.1" d="M132.681 267.117V190.82L66.3411 228.968L132.681 267.117Z" fill="#231F20"/>
<path opacity="0.05" d="M66.341 76.2964L0 114.444L66.341 152.593L132.681 114.444L66.341 76.2964V76.2964Z" fill="#231F20"/>
<path opacity="0.05" d="M199.022 76.2964L132.681 114.444L199.022 152.593L265.283 114.444L199.022 76.2964V76.2964Z" fill="#231F20"/>
</g>
<defs>
<linearGradient id="paint0_linear_173_159" x1="265.315" y1="57.2119" x2="0" y2="57.2119" gradientUnits="userSpaceOnUse">
<stop stop-color="#37BDA6"/>
<stop offset="1" stop-color="#8AD3B8"/>
</linearGradient>
<linearGradient id="paint1_linear_173_159" x1="265.315" y1="152.548" x2="0" y2="152.548" gradientUnits="userSpaceOnUse">
<stop offset="0.5" stop-color="#4BB6AD"/>
<stop offset="1" stop-color="#78BBC1"/>
</linearGradient>
<linearGradient id="paint2_linear_173_159" x1="132.657" y1="152.548" x2="265.313" y2="152.548" gradientUnits="userSpaceOnUse">
<stop stop-color="#4379A7"/>
<stop offset="1" stop-color="#7CC9B8"/>
</linearGradient>
<clipPath id="clip0_173_159">
<rect width="266" height="268" fill="white"/>
</clipPath>
</defs>
</svg>
