<svg width="268" height="268" viewBox="0 0 268 268" fill="none" xmlns="http://www.w3.org/2000/svg">
<g clip-path="url(#clip0_173_156)">
<path d="M58.692 0H209.308C241.723 0 268 26.2766 268 58.692V209.308C268 241.723 241.723 268 209.308 268H58.692C26.2766 268 0 241.723 0 209.308V58.692C0 26.2766 26.2766 0 58.692 0Z" fill="url(#paint0_linear_173_156)"/>
<path d="M85.8878 194.52L85.9129 194.528L76.7496 210.399C73.4048 216.192 65.9971 218.177 60.2037 214.832C54.4114 211.488 52.4255 204.08 55.7702 198.286L62.5205 186.595L63.1685 185.473C64.3253 183.81 67.1801 180.94 72.8908 181.48C72.8908 181.48 86.3296 182.938 87.3021 189.923C87.3021 189.923 87.434 192.221 85.8878 194.52V194.52ZM215.85 153.985H187.277C185.33 153.854 184.481 153.159 184.146 152.755L184.126 152.718L153.539 99.7399L153.499 99.7661L151.665 97.1363C148.658 92.5385 143.885 104.297 143.885 104.297C138.184 117.4 144.694 132.296 146.962 136.798L189.447 210.383C192.791 216.175 200.198 218.161 205.993 214.816C211.785 211.471 213.771 204.063 210.425 198.27L199.802 179.87C199.596 179.424 199.238 178.214 201.417 178.208H215.85C222.54 178.208 227.962 172.786 227.962 166.096C227.962 159.407 222.54 153.984 215.85 153.984V153.985ZM160.351 170.45C160.351 170.45 161.876 178.208 155.975 178.208H50.3464C43.6568 178.208 38.234 172.786 38.234 166.096C38.234 159.407 43.6568 153.984 50.3464 153.984H77.5023C81.8866 153.73 82.9251 151.199 82.9251 151.199L82.9502 151.212L118.397 89.8145L118.387 89.8124C119.033 88.6263 118.495 87.5051 118.402 87.3282L106.694 67.0512C103.35 61.2589 105.335 53.8501 111.128 50.5064C116.921 47.1616 124.329 49.1455 127.674 54.9389L133.103 64.343L138.523 54.9556C141.867 49.1633 149.275 47.1773 155.068 50.5232C160.862 53.8679 162.847 61.2746 159.502 67.068L110.175 152.503C109.96 153.024 109.894 153.84 111.499 153.984H140.983L140.989 154.272C140.989 154.272 158.03 154.536 160.351 170.45Z" fill="white"/>
</g>
<defs>
<linearGradient id="paint0_linear_173_156" x1="134" y1="0" x2="134" y2="268" gradientUnits="userSpaceOnUse">
<stop stop-color="#17C9FB"/>
<stop offset="1" stop-color="#1A74E8"/>
</linearGradient>
<clipPath id="clip0_173_156">
<rect width="268" height="268" fill="white"/>
</clipPath>
</defs>
</svg>
