<svg width="282" height="234" viewBox="0 0 282 234" fill="none" xmlns="http://www.w3.org/2000/svg">
<g clip-path="url(#clip0_173_175)">
<path d="M141.331 0C65.7196 0 6.48195 95.94 0.877197 176.972C24.6049 218.041 81.8233 233.478 141.333 233.478C200.838 233.478 258.06 218.041 281.776 176.971C276.17 95.94 216.94 0 141.332 0" fill="#B6DEFF"/>
<path d="M262.017 157.67C262.017 157.67 245.318 121.662 228.344 100.655C211.357 79.639 190.614 56.7554 178.349 56.7554C166.091 56.7554 131.824 117.264 116.103 117.264C100.379 117.264 92.208 89.834 72.8767 89.834C53.5377 89.834 22.8129 155.979 22.8129 155.979L20.731 167.192C20.731 167.192 31.4051 214.389 143.075 214.389C254.749 214.389 263.674 167.967 263.674 167.967L262.018 157.669" fill="#66CC66"/>
<path d="M117.853 143.086C100.51 143.086 91.6197 126.021 86.7993 115.486C82.4646 105.997 81.7145 91.014 69.4155 90.5943C70.6239 90.1164 71.7872 89.8341 72.8777 89.8341C92.2091 89.8341 100.38 117.264 116.104 117.264C131.825 117.264 166.092 56.7544 178.35 56.7544C180.66 56.7544 183.262 57.5674 186.085 59.0131C183.997 58.7385 181.319 58.9296 179.256 60.9939C175.293 64.9466 139.324 143.086 117.853 143.086" fill="#17AD49"/>
</g>
<defs>
<clipPath id="clip0_173_175">
<rect width="282" height="234" fill="white"/>
</clipPath>
</defs>
</svg>
