<svg width="420" height="168" viewBox="0 0 420 168" fill="none" xmlns="http://www.w3.org/2000/svg">
<g clip-path="url(#clip0_173_181)">
<path d="M0 0V11.483H81.7523V0H0ZM93.3352 0V11.483H209.836C209.836 11.483 197.936 0 182.175 0H93.3352V0ZM232.69 0V11.483H303.171L298.988 0H232.69V0ZM353.702 0L349.519 11.483H419.36V0H353.702V0ZM0 22.3317V33.8147H81.7523V22.3317H0ZM93.3352 22.3481V33.8147H223.355C223.355 33.8147 221.836 24.9771 219.188 22.3481H93.3352ZM232.69 22.3481V33.8147H310.898L307.027 22.3481H232.69ZM345.335 22.3481L341.463 33.8147H419.36V22.3481H345.335V22.3481ZM23.4937 44.6634V56.1612H58.8984V44.6634H23.4937ZM116.829 44.6634V56.1612H152.234V44.6634H116.829ZM186.67 44.6634V56.1612H222.075C222.075 56.1612 224.323 50.0886 224.323 44.6626H186.67V44.6634ZM256.184 44.6634V56.1612H318.954L314.77 44.6626H256.184V44.6634ZM337.624 44.6634L333.424 56.162H396.506V44.6634H337.624ZM23.4937 67.0115V78.4929H58.8984V67.0115H23.4937ZM116.829 67.0115V78.4929H207.26C207.26 78.4929 214.825 72.6006 217.235 67.0099H116.829V67.0115ZM256.184 67.0115V78.4929H291.588V72.1007L293.836 78.4929H358.69L361.102 72.1007V78.4929H396.506V67.0115H330.045L326.517 76.7383L322.973 67.0115H256.184ZM23.4937 89.3416V100.825H58.8984V89.3416H23.4937ZM116.829 89.3416V100.825H217.235C214.824 95.2519 207.26 89.3416 207.26 89.3416H116.829V89.3416ZM256.184 89.3416V100.825H291.588V89.3416H256.184ZM298.02 89.3416L302.302 100.825H350.93L354.998 89.3416H298.02ZM361.102 89.3416V100.825H396.506V89.3416H361.102V89.3416ZM23.4937 111.673V123.156H58.8984V111.673H23.4937V111.673ZM116.829 111.673V123.156H152.234V111.673H116.829ZM186.67 111.673V123.156H224.323C224.323 117.737 222.075 111.673 222.075 111.673H186.67V111.673ZM256.184 111.673V123.156H291.588V111.673H256.184V111.673ZM306.059 111.673L310.209 123.156H342.809L346.992 111.673H306.059V111.673ZM361.102 111.673V123.156H396.506V111.673H361.102V111.673ZM0.639844 134.006V145.504H82.3922V134.005H0.639844V134.006ZM93.3352 134.006V145.504H219.188C221.836 142.871 223.355 134.005 223.355 134.005H93.3352V134.006ZM233.33 134.006V145.504H291.588V134.005H233.33V134.006ZM314.114 134.006L318.38 145.504H334.966L338.97 134.005H314.114V134.006ZM361.102 134.006V145.504H420V134.005H361.102V134.006ZM0.639844 156.353V167.836H82.3922V156.353H0.639844ZM93.3352 156.353V167.819H182.175C197.936 167.819 209.836 156.352 209.836 156.352H93.3352V156.353ZM233.33 156.353V167.836H291.588V156.353H233.33ZM322.202 156.353L326.304 167.802L327.009 167.819L331.177 156.352H322.202V156.353ZM361.102 156.353V167.836H420V156.353H361.102Z" fill="#1F70C1"/>
</g>
<defs>
<clipPath id="clip0_173_181">
<rect width="420" height="168" fill="white"/>
</clipPath>
</defs>
</svg>
